<svg width="1440" height="286" viewBox="0 0 1440 286" fill="none" xmlns="http://www.w3.org/2000/svg">
<g opacity="0.61" filter="url(#filter0_f_129_6)">
<ellipse cx="720" cy="492" rx="720" ry="242" fill="#4BA4C6" fill-opacity="0.37"/>
<path d="M1439.5 492C1439.5 525.196 1419.48 556.899 1383.11 585.806C1346.74 614.709 1294.08 640.759 1228.96 662.646C1098.73 706.418 918.783 733.5 720 733.5C521.217 733.5 341.273 706.418 211.042 662.646C145.925 640.759 93.2636 614.709 56.8922 585.806C20.5157 556.899 0.5 525.196 0.5 492C0.5 458.804 20.5157 427.101 56.8922 398.194C93.2636 369.291 145.925 343.241 211.042 321.354C341.273 277.582 521.217 250.5 720 250.5C918.783 250.5 1098.73 277.582 1228.96 321.354C1294.08 343.241 1346.74 369.291 1383.11 398.194C1419.48 427.101 1439.5 458.804 1439.5 492Z" stroke="black"/>
</g>
<defs>
<filter id="filter0_f_129_6" x="-250" y="0" width="1940" height="984" filterUnits="userSpaceOnUse" color-interpolation-filters="sRGB">
<feFlood flood-opacity="0" result="BackgroundImageFix"/>
<feBlend mode="normal" in="SourceGraphic" in2="BackgroundImageFix" result="shape"/>
<feGaussianBlur stdDeviation="125" result="effect1_foregroundBlur_129_6"/>
</filter>
</defs>
</svg>
