<svg width="71" height="68" viewBox="0 0 71 68" fill="none" xmlns="http://www.w3.org/2000/svg">
<path d="M0.827393 32.48C0.827393 17.1687 0.827393 9.51317 5.748 4.75659C10.6686 0 18.5881 0 34.4274 0H37.2274C53.0666 0 60.9861 0 65.9068 4.75659C70.8274 9.51317 70.8274 17.1687 70.8274 32.48V35.1867C70.8274 50.4979 70.8274 58.1534 65.9068 62.9101C60.9861 67.6667 53.0666 67.6667 37.2274 67.6667H34.4274C18.5881 67.6667 10.6686 67.6667 5.748 62.9101C0.827393 58.1534 0.827393 50.4979 0.827393 35.1867V32.48Z" fill="url(#paint0_linear_104_13)"/>
<path d="M26.5883 47.3408L27.2291 47.647C29.8996 49.1778 32.8903 49.8922 35.8812 49.8922C45.2807 49.8922 52.9713 42.5441 52.9713 33.5631C52.9713 29.2768 51.1554 25.0924 47.9511 22.0307C44.7466 18.9689 40.474 17.234 35.8812 17.234C26.4816 17.234 18.7909 24.5821 18.8978 33.6652C18.8978 36.7268 19.8591 39.6866 21.4612 42.2379L21.8884 42.8503L20.1796 48.8717L26.5883 47.3408Z" fill="white"/>
<path d="M49.7668 20.3977C46.1352 16.8258 41.115 14.8867 35.9879 14.8867C25.093 14.8867 16.3343 23.3574 16.441 33.6651C16.441 36.9309 17.4023 40.0948 19.0046 42.9523L16.2274 52.6477L26.5883 50.0963C29.4722 51.6272 32.6765 52.3417 35.8811 52.3417C46.6693 52.3417 55.428 43.8708 55.428 33.5632C55.428 28.5624 53.3983 23.8677 49.7668 20.3977ZM35.9879 49.1779C33.1039 49.1779 30.22 48.4637 27.7632 47.0348L27.1224 46.7286L20.9273 48.2594L22.5294 42.4423L22.1022 41.8298C17.4023 34.5839 19.6454 24.9903 27.336 20.4997C35.0266 16.0093 44.9602 18.1525 49.6601 25.5006C54.3598 32.8487 52.1167 42.34 44.4263 46.8306C41.9694 48.3614 38.9787 49.1779 35.9879 49.1779ZM45.3874 37.8497L44.2125 37.3394C44.2125 37.3394 42.5036 36.625 41.4354 36.1147C41.3286 36.1147 41.2218 36.0126 41.115 36.0126C40.7945 36.0126 40.5809 36.1147 40.3672 36.2168C40.3672 36.2168 40.2605 36.3188 38.7651 37.9517C38.6582 38.1558 38.4446 38.2579 38.231 38.2579H38.1241C38.0174 38.2579 37.8038 38.1558 37.6969 38.0538L37.1628 37.8497C35.9879 37.3394 34.9198 36.727 34.0652 35.9106C33.8516 35.7065 33.5311 35.5024 33.3175 35.2983C32.5698 34.5839 31.8221 33.7673 31.2882 32.8488L31.1813 32.6447C31.0745 32.5426 31.0745 32.4406 30.9677 32.2365C30.9677 32.0324 30.9677 31.8284 31.0745 31.7262C31.0745 31.7262 31.5018 31.2159 31.8221 30.9098C32.0359 30.7056 32.1426 30.3995 32.3562 30.1954C32.5698 29.8892 32.6767 29.481 32.5698 29.1748C32.4631 28.6645 31.1813 25.9089 30.8609 25.2967C30.6472 24.9904 30.4337 24.8885 30.1132 24.7863H28.9383C28.7245 24.7863 28.5111 24.8885 28.2973 24.8885L28.1904 24.9904C27.9768 25.0926 27.7632 25.2967 27.5496 25.3986C27.336 25.6029 27.2291 25.8068 27.0155 26.0111C26.2678 26.9296 25.8406 28.0522 25.8406 29.1748C25.8406 29.9912 26.0542 30.8077 26.3747 31.5221L26.4816 31.8283C27.4429 33.7673 28.7245 35.5024 30.4337 37.0332L30.8609 37.4414C31.1813 37.7476 31.5018 37.9517 31.7154 38.2578C33.9585 40.0949 36.522 41.4217 39.4059 42.1361C39.7264 42.238 40.1536 42.238 40.4741 42.3402H41.5422C42.0763 42.3402 42.7171 42.1361 43.1445 41.932C43.4648 41.7279 43.6784 41.7279 43.892 41.5238L44.1058 41.3195C44.3194 41.1154 44.533 41.0135 44.7466 40.8094C44.9602 40.6053 45.1738 40.4012 45.2807 40.1969C45.4943 39.7887 45.6011 39.2784 45.7079 38.7682V38.0538C45.7079 38.0538 45.6011 37.9517 45.3874 37.8497Z" fill="black"/>
<defs>
<linearGradient id="paint0_linear_104_13" x1="35.8274" y1="0" x2="35.8274" y2="67.6667" gradientUnits="userSpaceOnUse">
<stop stop-color="white"/>
<stop offset="0.765625" stop-color="white"/>
</linearGradient>
</defs>
</svg>
